<svg id="visual" viewBox="0 0 900 900" width="900" height="900" xmlns="http://www.w3.org/2000/svg" xmlns:xlink="http://www.w3.org/1999/xlink" version="1.1"><g transform="translate(409.4141899635965 493.1219641459156)"><path d="M175.3 -245.1C241.2 -193.3 318.4 -160.9 362.4 -100.1C406.4 -39.3 417.2 49.9 373.3 101.6C329.4 153.4 230.8 167.7 159.5 185.2C88.2 202.7 44.1 223.3 -20.1 251C-84.2 278.6 -168.5 313.3 -225.4 291.1C-282.3 268.9 -311.9 189.9 -318.6 116.1C-325.3 42.2 -309.1 -26.5 -289.6 -96.5C-270.1 -166.5 -247.3 -237.8 -198.5 -295.1C-149.7 -352.4 -74.8 -395.7 -10.1 -381.8C54.7 -367.9 109.3 -296.8 175.3 -245.1" fill="#715DF2"></path></g></svg>