<svg width="426" height="328" viewBox="0 0 426 328" fill="none" xmlns="http://www.w3.org/2000/svg">
<g filter="url(#filter0_d_37_3)">
<path d="M17.7042 76.4713C18.8779 70.4257 26.1559 67.9178 30.8047 71.957L61.5301 98.6534C66.1789 102.693 64.7118 110.249 58.8894 112.256L20.4069 125.517C14.5845 127.523 8.77354 122.474 9.94719 116.428L17.7042 76.4713Z" fill="#E672C5"/>
<path d="M350.423 5.86241C353.884 5.68672 357.065 7.75982 358.301 10.9975L370.723 43.5162C371.96 46.7539 370.971 50.4196 368.274 52.5963L341.185 74.4586C338.488 76.6353 334.696 76.8278 331.793 74.9354L302.63 55.9283C299.726 54.0359 298.371 50.4891 299.274 47.1429L308.339 13.5335C309.241 10.1873 312.196 7.80278 315.657 7.62708L350.423 5.86241Z" fill="#E672C5"/>
<path d="M395.407 212.073C397.821 212.386 399.962 213.781 401.223 215.863L414.984 238.594C416.245 240.677 416.489 243.22 415.647 245.504L406.456 270.436C405.613 272.72 403.777 274.496 401.466 275.262L376.243 283.621C373.932 284.387 371.398 284.058 369.358 282.729L347.097 268.22C345.058 266.891 343.734 264.705 343.502 262.282L340.966 235.832C340.733 233.408 341.617 231.011 343.367 229.318L362.466 210.844C364.215 209.151 366.641 208.347 369.055 208.66L395.407 212.073Z" fill="#E672C5"/>
<path d="M96.3996 251.218C100.723 250.307 104.966 253.072 105.878 257.396L114.101 296.4C115.013 300.723 112.247 304.966 107.924 305.878L68.92 314.101C64.5968 315.013 60.3532 312.247 59.4417 307.924L51.2181 268.92C50.3066 264.597 53.0724 260.353 57.3956 259.442L96.3996 251.218Z" fill="#E672C5"/>
</g>
<defs>
<filter id="filter0_d_37_3" x="0.794861" y="0.852051" width="424.346" height="326.423" filterUnits="userSpaceOnUse" color-interpolation-filters="sRGB">
<feFlood flood-opacity="0" result="BackgroundImageFix"/>
<feColorMatrix in="SourceAlpha" type="matrix" values="0 0 0 0 0 0 0 0 0 0 0 0 0 0 0 0 0 0 127 0" result="hardAlpha"/>
<feOffset dy="4"/>
<feGaussianBlur stdDeviation="4.5"/>
<feComposite in2="hardAlpha" operator="out"/>
<feColorMatrix type="matrix" values="0 0 0 0 0 0 0 0 0 0 0 0 0 0 0 0 0 0 0.25 0"/>
<feBlend mode="normal" in2="BackgroundImageFix" result="effect1_dropShadow_37_3"/>
<feBlend mode="normal" in="SourceGraphic" in2="effect1_dropShadow_37_3" result="shape"/>
</filter>
</defs>
</svg>
